<svg width="16" height="16" fill="none" xmlns="http://www.w3.org/2000/svg"><path fill-rule="evenodd" clip-rule="evenodd" d="M9.333 4.667c0-.736-.598-1.334-1.333-1.334A1.335 1.335 0 008 6c.735 0 1.333-.598 1.333-1.333zm1.334 0A2.67 2.67 0 018 7.333a2.67 2.67 0 01-2.667-2.666A2.67 2.67 0 018 2a2.67 2.67 0 012.667 2.667zm-7.334 8.666A4.672 4.672 0 018 8.667a4.672 4.672 0 014.667 4.666.667.667 0 11-1.334 0A3.337 3.337 0 008 10a3.337 3.337 0 00-3.333 3.333.667.667 0 11-1.334 0z" fill="#231F20"/><mask id="mask0" style="mask-type:alpha" maskUnits="userSpaceOnUse" x="3" y="2" width="10" height="12"><path fill-rule="evenodd" clip-rule="evenodd" d="M9.333 4.667c0-.736-.598-1.334-1.333-1.334A1.335 1.335 0 008 6c.735 0 1.333-.598 1.333-1.333zm1.334 0A2.67 2.67 0 018 7.333a2.67 2.67 0 01-2.667-2.666A2.67 2.67 0 018 2a2.67 2.67 0 012.667 2.667zm-7.334 8.666A4.672 4.672 0 018 8.667a4.672 4.672 0 014.667 4.666.667.667 0 11-1.334 0A3.337 3.337 0 008 10a3.337 3.337 0 00-3.333 3.333.667.667 0 11-1.334 0z" fill="#fff"/></mask><g mask="url(#mask0)"><path fill="#000" d="M0 0h16v16H0z"/></g></svg>