<svg width="107" height="87" fill="none" xmlns="http://www.w3.org/2000/svg"><path d="M0 42.778L37.268 21.87.55 0 0 42.778zm6.863-31.499l17.433 10.385L6.59 31.636l.274-20.357zM17.57 77.028L37.199 87l-1.236-22.008L17.57 77.028zm1.578-.069l16.06-10.523 1.099 19.257-17.159-8.734zM97.666 43.81L107 32.462l-14.481-2.476 5.147 13.824zm.138-1.032l-4.462-12.104 12.629 2.132-8.168 9.972zM55.868 40.37l-.687 9.354-.755 9.285 8.442-4.058 8.374-3.99-7.687-5.295-7.687-5.295zm36.581 38.514l3.088 3.439 3.089 3.439 1.441-4.333 1.442-4.402-4.53.894-4.53.963z" fill="#6DED02"/></svg>